<svg xmlns="http://www.w3.org/2000/svg" xmlns:xlink="http://www.w3.org/1999/xlink" width="175" height="52" viewBox="0 0 167.25 52" >
  <defs>
    <clipPath id="clip-path">
      <rect id="Rectangle_299" data-name="Rectangle 299" width="175" height="52" />
    </clipPath>
  </defs>
  <g id="Group_347" data-name="Group 347" transform="translate(0 0)" >
    <g id="Group_346" data-name="Group 346" transform="translate(0 0)" clip-path="url(#clip-path)">
      <path id="Path_144" data-name="Path 144" d="M155.2,52,10.609,52c-.41,0-.811-.006-1.217-.014a17.187,17.187,0,0,1-2.562-.225,8.359,8.359,0,0,1-2.358-.778,7.734,7.734,0,0,1-2-1.454,7.544,7.544,0,0,1-1.454-1.993,8.107,8.107,0,0,1-.774-2.356A17.309,17.309,0,0,1,.02,42.6C.012,42.326,0,41.383,0,41.383V10.6C0,10.6.012,9.67.02,9.4A16.951,16.951,0,0,1,.247,6.834a8.178,8.178,0,0,1,.774-2.364,7.638,7.638,0,0,1,1.45-2,7.873,7.873,0,0,1,2-1.456A8.285,8.285,0,0,1,6.822.241,17.381,17.381,0,0,1,9.4.016L10.6,0H156.635l1.223.016a17.251,17.251,0,0,1,2.552.223,8.394,8.394,0,0,1,2.377.78,7.927,7.927,0,0,1,3.447,3.451A8.212,8.212,0,0,1,167,6.82a18,18,0,0,1,.239,2.589c0,.384,0,.79,0,1.2.01.492.01.97.01,1.454V39.937c0,.488,0,.964-.01,1.444,0,.425,0,.823-.006,1.235A17.464,17.464,0,0,1,167,45.164a8.134,8.134,0,0,1-.768,2.373,7.812,7.812,0,0,1-1.452,1.983,7.675,7.675,0,0,1-1.995,1.456,8.316,8.316,0,0,1-2.37.782,17.3,17.3,0,0,1-2.571.225c-.39.008-.8.014-1.2.014ZM1.043,41.377s.01.923.018,1.2A16.28,16.28,0,0,0,1.278,45a7.08,7.08,0,0,0,.674,2.058,6.5,6.5,0,0,0,1.26,1.723,6.683,6.683,0,0,0,1.731,1.262A7.324,7.324,0,0,0,7,50.728a16.375,16.375,0,0,0,2.409.21c.4.008.8.014,1.2.014l144.589,0,1.441,0c.394,0,.8-.006,1.186-.014a16.51,16.51,0,0,0,2.417-.21,7.3,7.3,0,0,0,2.07-.684,6.608,6.608,0,0,0,1.727-1.262,6.753,6.753,0,0,0,1.262-1.719,7.112,7.112,0,0,0,.668-2.068,16.582,16.582,0,0,0,.22-2.4c.006-.4.006-.8.006-1.229.01-.484.01-.954.01-1.433V12.059c0-.476,0-.947-.01-1.444,0-.412,0-.817,0-1.192a17.1,17.1,0,0,0-.225-2.434,7.166,7.166,0,0,0-.666-2.048,6.9,6.9,0,0,0-2.989-2.993,7.43,7.43,0,0,0-2.074-.68,16.2,16.2,0,0,0-2.393-.208l-1.219-.016H10.609L9.415,1.06a16.312,16.312,0,0,0-2.422.21,7.3,7.3,0,0,0-2.052.676A6.89,6.89,0,0,0,3.208,3.212,6.619,6.619,0,0,0,1.952,4.939,7.163,7.163,0,0,0,1.276,7a15.965,15.965,0,0,0-.212,2.415c-.008.278-.02,1.192-.02,1.192Z" transform="translate(0 0.001)"/>
      <path id="Path_145" data-name="Path 145" d="M26.454,17.133a6.85,6.85,0,0,1,3.265-5.752,7.024,7.024,0,0,0-5.531-2.989c-2.324-.243-4.58,1.392-5.764,1.392-1.211,0-3.034-1.368-5-1.327a7.362,7.362,0,0,0-6.2,3.779c-2.677,4.637-.68,11.454,1.887,15.2,1.284,1.838,2.783,3.888,4.749,3.814,1.921-.08,2.638-1.225,4.955-1.225,2.3,0,2.973,1.225,4.978,1.18,2.058-.035,3.361-1.846,4.6-3.7A15.275,15.275,0,0,0,30.5,23.228a6.622,6.622,0,0,1-4.045-6.095" transform="translate(6.204 8.718)"/>
      <path id="Path_146" data-name="Path 146" d="M16.436,9.639A6.741,6.741,0,0,0,17.979,4.8a6.86,6.86,0,0,0-4.443,2.3,6.422,6.422,0,0,0-1.584,4.655,5.679,5.679,0,0,0,4.484-2.119" transform="translate(12.437 5.005)"/>
      <path id="Path_147" data-name="Path 147" d="M24.2,13.332V6.506H21.7V5.383h6.232V6.506h-2.5v6.826Z" transform="translate(22.608 5.609)"/>
      <path id="Path_148" data-name="Path 148" d="M30.318,12.2a2.436,2.436,0,0,1-2.6,1.736,2.726,2.726,0,0,1-2.771-3.1,2.768,2.768,0,0,1,2.375-3.11,2.8,2.8,0,0,1,.392-.022c1.668,0,2.675,1.139,2.675,3.024v.412H26.155V11.2A1.584,1.584,0,0,0,27.6,12.917c.051,0,.1.006.151.006a1.439,1.439,0,0,0,1.427-.727Zm-4.163-1.934h3.028a1.447,1.447,0,0,0-1.335-1.55,1.083,1.083,0,0,0-.141,0,1.533,1.533,0,0,0-1.552,1.515v.039M27,6.814l1.382-1.895h1.388L28.225,6.814Z" transform="translate(25.964 5.125)"/>
      <rect id="Rectangle_297" data-name="Rectangle 297" width="1.184" height="8.341" transform="translate(57.997 10.601)"/>
      <path id="Path_149" data-name="Path 149" d="M35.174,12.2a2.437,2.437,0,0,1-2.6,1.736,2.726,2.726,0,0,1-2.771-3.1,2.768,2.768,0,0,1,2.375-3.11,2.8,2.8,0,0,1,.392-.022c1.668,0,2.675,1.139,2.675,3.024v.412H31.011V11.2a1.584,1.584,0,0,0,1.446,1.713c.051,0,.1.006.151.006a1.439,1.439,0,0,0,1.427-.727Zm-4.163-1.934h3.028A1.447,1.447,0,0,0,32.7,8.713a1.083,1.083,0,0,0-.141,0,1.533,1.533,0,0,0-1.552,1.515Zm.847-3.449L33.24,4.919h1.388L33.081,6.814Z" transform="translate(31.023 5.125)"/>
      <path id="Path_150" data-name="Path 150" d="M37.328,8.364a1.338,1.338,0,0,0-1.417-1.019c-.99,0-1.6.76-1.6,2.038,0,1.3.61,2.076,1.6,2.076a1.3,1.3,0,0,0,1.417-.986h1.152a2.347,2.347,0,0,1-2.562,2.044A2.747,2.747,0,0,1,33.1,9.382,2.735,2.735,0,0,1,35.451,6.31a2.655,2.655,0,0,1,.459-.022,2.368,2.368,0,0,1,2.569,2.076Z" transform="translate(34.457 6.54)"/>
      <path id="Path_151" data-name="Path 151" d="M36.492,5.192h1.174V8.5h.094a1.841,1.841,0,0,1,1.827-1.074,1.975,1.975,0,0,1,2.081,1.864,1.882,1.882,0,0,1-.014.372v3.873H40.469V9.951c0-.958-.447-1.444-1.284-1.444A1.4,1.4,0,0,0,37.674,9.79a1.335,1.335,0,0,0,0,.239v3.5H36.492Z" transform="translate(38.017 5.41)"/>
      <path id="Path_152" data-name="Path 152" d="M39.749,10.7c0-1.08.8-1.7,2.23-1.791L43.6,8.816V8.3c0-.635-.419-.992-1.227-.992-.662,0-1.119.243-1.252.668H39.98c.12-1.031,1.09-1.693,2.45-1.693,1.5,0,2.352.749,2.352,2.017v4.1H43.643v-.843h-.094a2.01,2.01,0,0,1-1.8.941,1.812,1.812,0,0,1-1.991-1.615,1.738,1.738,0,0,1-.008-.18m3.855-.512v-.5L42.14,9.78c-.827.055-1.2.337-1.2.866s.468.853,1.111.853a1.412,1.412,0,0,0,1.55-1.264Z" transform="translate(41.41 6.545)"/>
      <path id="Path_153" data-name="Path 153" d="M43.122,6.392h1.139v.919h.088A1.632,1.632,0,0,1,45.97,6.292a2.53,2.53,0,0,1,.527.049v1.17a3.107,3.107,0,0,0-.659-.071,1.4,1.4,0,0,0-1.525,1.274q-.006.067-.006.135v3.542H43.122Z" transform="translate(44.924 6.552)"/>
      <path id="Path_154" data-name="Path 154" d="M45.43,12.99h1.213c.1.435.6.715,1.4.715.986,0,1.57-.468,1.57-1.26V11.293h-.088A2.018,2.018,0,0,1,47.672,12.3c-1.531,0-2.479-1.184-2.479-2.979,0-1.829.958-3.03,2.491-3.03a2.079,2.079,0,0,1,1.883,1.058h.094V6.391H50.8v6.048c0,1.372-1.074,2.242-2.771,2.242-1.5,0-2.469-.672-2.6-1.691m4.2-3.675c0-1.194-.619-1.96-1.625-1.96s-1.593.766-1.593,1.96.574,1.96,1.593,1.96S49.634,10.515,49.634,9.314Z" transform="translate(47.081 6.553)"/>
      <path id="Path_155" data-name="Path 155" d="M54.1,10.777a2.434,2.434,0,0,1-2.6,1.736A2.727,2.727,0,0,1,48.7,9.86a2.7,2.7,0,0,1,.025-.445A2.77,2.77,0,0,1,51.1,6.306a3.158,3.158,0,0,1,.392-.025c1.668,0,2.677,1.141,2.677,3.024v.414H49.934v.065A1.584,1.584,0,0,0,51.381,11.5c.049,0,.1.006.149.006a1.439,1.439,0,0,0,1.427-.727ZM49.934,8.843h3.03a1.447,1.447,0,0,0-1.337-1.55,1.041,1.041,0,0,0-.139,0A1.535,1.535,0,0,0,49.934,8.8Z" transform="translate(50.736 6.544)"/>
      <path id="Path_156" data-name="Path 156" d="M52.158,6.392H53.3v.919h.088a1.632,1.632,0,0,1,1.621-1.019,2.53,2.53,0,0,1,.527.049v1.17a3.107,3.107,0,0,0-.66-.071,1.4,1.4,0,0,0-1.525,1.274q-.006.067-.006.135v3.542H52.158Z" transform="translate(54.337 6.552)"/>
      <path id="Path_157" data-name="Path 157" d="M55.9,10.529c0-1.895.974-3.1,2.491-3.1A1.972,1.972,0,0,1,60.23,8.485h.09V5.192H61.5v8.339H60.368v-.947h-.094a2.082,2.082,0,0,1-1.883,1.047c-1.527,0-2.491-1.2-2.491-3.1m1.223,0c0,1.272.6,2.038,1.6,2.038s1.615-.776,1.615-2.032S59.717,8.5,58.727,8.5,57.124,9.267,57.124,10.529Z" transform="translate(58.236 5.41)"/>
      <path id="Path_158" data-name="Path 158" d="M59.428,10.7c0-1.08.8-1.7,2.23-1.791l1.625-.094V8.3c0-.635-.419-.992-1.227-.992-.662,0-1.119.243-1.252.668H59.659c.12-1.031,1.09-1.693,2.45-1.693,1.5,0,2.352.749,2.352,2.017v4.1H63.322v-.843h-.094a2.01,2.01,0,0,1-1.8.941,1.812,1.812,0,0,1-1.991-1.615,1.738,1.738,0,0,1-.008-.18m3.855-.512v-.5l-1.464.094c-.827.055-1.2.337-1.2.866s.468.853,1.111.853a1.412,1.412,0,0,0,1.55-1.264Z" transform="translate(61.911 6.545)"/>
      <path id="Path_159" data-name="Path 159" d="M62.8,6.4H63.94v.954h.09a1.794,1.794,0,0,1,1.789-1.07,1.954,1.954,0,0,1,2.093,1.8,2.044,2.044,0,0,1-.014.433V12.4H66.711V8.815c0-.966-.419-1.444-1.294-1.444A1.374,1.374,0,0,0,63.979,8.68a1.032,1.032,0,0,0,.008.21V12.4H62.8Z" transform="translate(65.425 6.542)"/>
      <path id="Path_160" data-name="Path 160" d="M68.535,6.282c1.35,0,2.232.627,2.346,1.684H69.746c-.108-.439-.539-.721-1.211-.721s-1.164.314-1.164.782c0,.359.3.584.954.733l1,.231C70.462,9.257,71,9.747,71,10.629c0,1.129-1.052,1.883-2.485,1.883s-2.356-.643-2.462-1.707h1.186a1.217,1.217,0,0,0,1.3.749c.737,0,1.262-.331,1.262-.811,0-.357-.282-.59-.882-.733l-1.047-.241C66.734,9.5,66.205,8.987,66.205,8.1c0-1.064.974-1.813,2.33-1.813" transform="translate(68.809 6.545)"/>
      <rect id="Rectangle_298" data-name="Rectangle 298" width="2.477" height="16.542" transform="translate(46.238 23.44)"/>
      <path id="Path_161" data-name="Path 161" d="M25.321,17.533l1.354-6.054H29.08l-1.638,6.054Z" transform="translate(26.379 11.959)"/>
      <path id="Path_162" data-name="Path 162" d="M37.1,23.549H30.794L29.281,28.02H26.608l5.974-16.54h2.775l5.972,16.54H38.612Zm-5.652-2.062h5L33.981,14.23h-.069Z" transform="translate(27.72 11.96)"/>
      <path id="Path_163" data-name="Path 163" d="M45.93,19.771c0,3.749-2.005,6.156-5.033,6.156A4.085,4.085,0,0,1,37.1,23.816h-.057V29.79H34.57V13.74h2.4v2.007h.045a4.283,4.283,0,0,1,3.841-2.134c3.061,0,5.078,2.422,5.078,6.158m-2.544,0c0-2.442-1.262-4.047-3.187-4.047-1.891,0-3.163,1.64-3.163,4.047,0,2.43,1.272,4.057,3.163,4.057,1.925,0,3.187-1.593,3.187-4.057" transform="translate(36.014 14.18)"/>
      <path id="Path_164" data-name="Path 164" d="M52.432,19.771c0,3.749-2.005,6.156-5.033,6.156a4.085,4.085,0,0,1-3.794-2.111h-.057V29.79H41.072V13.74h2.4v2.007h.045a4.283,4.283,0,0,1,3.841-2.134c3.061,0,5.078,2.422,5.078,6.158m-2.544,0c0-2.442-1.262-4.047-3.187-4.047-1.891,0-3.163,1.64-3.163,4.047,0,2.43,1.272,4.057,3.163,4.057,1.925,0,3.187-1.593,3.187-4.057" transform="translate(42.788 14.18)"/>
      <path id="Path_165" data-name="Path 165" d="M52.226,23.554c.184,1.64,1.776,2.718,3.955,2.718,2.087,0,3.587-1.078,3.587-2.556,0-1.284-.9-2.052-3.048-2.579l-2.144-.517c-3.038-.735-4.449-2.154-4.449-4.459,0-2.854,2.487-4.817,6.019-4.817,3.5,0,5.893,1.962,5.972,4.817h-2.5c-.149-1.652-1.513-2.648-3.508-2.648s-3.359,1.009-3.359,2.475c0,1.17.872,1.858,3,2.385l1.823.447c3.393.8,4.8,2.166,4.8,4.586,0,3.1-2.466,5.033-6.387,5.033-3.669,0-6.146-1.893-6.305-4.884Z" transform="translate(51.768 11.819)"/>
      <path id="Path_166" data-name="Path 166" d="M60.689,12.276V15.13h2.293v1.96H60.689v6.648c0,1.033.459,1.515,1.468,1.515a7.8,7.8,0,0,0,.815-.057v1.948a6.618,6.618,0,0,1-1.376.114c-2.442,0-3.393-.917-3.393-3.255V17.091H56.448V15.13H58.2V12.276Z" transform="translate(58.806 12.789)"/>
      <path id="Path_167" data-name="Path 167" d="M60.3,19.78c0-3.8,2.234-6.178,5.719-6.178s5.721,2.383,5.721,6.178-2.211,6.178-5.721,6.178S60.3,23.586,60.3,19.78m8.918,0c0-2.6-1.192-4.139-3.2-4.139s-3.2,1.548-3.2,4.139c0,2.613,1.192,4.139,3.2,4.139s3.2-1.525,3.2-4.139" transform="translate(62.817 14.171)"/>
      <path id="Path_168" data-name="Path 168" d="M66.9,13.74h2.36v2.052h.057a2.881,2.881,0,0,1,2.9-2.179,3.992,3.992,0,0,1,.849.092v2.317a3.5,3.5,0,0,0-1.115-.151,2.494,2.494,0,0,0-2.593,2.391,2.4,2.4,0,0,0,.012.384V25.8H66.9Z" transform="translate(69.696 14.18)"/>
      <path id="Path_169" data-name="Path 169" d="M81.064,22.268c-.333,2.189-2.466,3.692-5.194,3.692-3.508,0-5.686-2.35-5.686-6.121S72.374,13.6,75.765,13.6c3.338,0,5.435,2.293,5.435,5.95V20.4H72.682v.151a3.142,3.142,0,0,0,2.852,3.406,3.59,3.59,0,0,0,.392.01,2.728,2.728,0,0,0,2.785-1.7Zm-8.369-3.6h6.029a2.9,2.9,0,0,0-2.734-3.057c-.076,0-.149-.006-.225,0a3.052,3.052,0,0,0-3.071,3.034v.027" transform="translate(73.115 14.17)"/>
    </g>
  </g>
</svg>
