<svg id="Group_178" data-name="Group 178" xmlns="http://www.w3.org/2000/svg" width="46.146" height="46.41" viewBox="0 0 46.146 46.41">
  <path id="Path_91" data-name="Path 91" d="M797.217,265.649l15.077,32.008a.894.894,0,0,0,.544.473l11.723,3.652a.9.9,0,0,0,1.067-1.255l-22.32-44.617a.9.9,0,0,0-1.6,0l-4.481,8.957A.9.9,0,0,0,797.217,265.649Z" transform="translate(-779.58 -255.414)" fill="#c3332a"/>
  <path id="Path_92" data-name="Path 92" d="M788.237,265.3l-15.261,32.54a.9.9,0,0,1-.543.475L761.4,301.768a1.206,1.206,0,0,1-1.433-1.694l22-44.162a.893.893,0,0,1,1.6,0Z" transform="translate(-759.834 -255.415)" fill="#e63d31"/>
</svg>
