<svg id="Group_177" xmlns="http://www.w3.org/2000/svg" width="70" height="18.499" viewBox="0 0 89.293 18.499">
    <path id="Path_83"
          d="M867.78,303.359l6.015-16.957a.462.462,0,0,1,.455-.3h2.3a.5.5,0,0,1,.48.3l6.015,16.957c.1.253-.025.43-.3.43h-2.2a.4.4,0,0,1-.43-.3l-1.036-3.083h-7.329l-1.061,3.083a.389.389,0,0,1-.43.3h-2.174C867.805,303.789,867.679,303.612,867.78,303.359Zm10.437-5.484-2.805-8.264-2.805,8.264Z"
          transform="translate(-867.745 -285.594)"/>
    <path id="Path_84"
          d="M903.811,303.031v-7.178h-1.592a.354.354,0,0,1-.354-.354v-1.44a.379.379,0,0,1,.379-.379h1.567V292.8a2.4,2.4,0,0,1,2.4-2.4h0a.354.354,0,0,1,.354.354v2.931h2a.379.379,0,0,1,.379.379v1.416a.379.379,0,0,1-.379.379h-2V302.7c0,.834.4,1.187,1.112,1.187.2,0,.505,0,.783-.025.3-.051.455.076.455.328v1.365c0,.505-1.112.657-1.87.657C905.2,306.215,903.811,305.33,903.811,303.031Z"
          transform="translate(-885.809 -287.868)"/>
    <path id="Path_85"
          d="M923.023,303.008v-15.34a2.376,2.376,0,0,1,2.376-2.376h0a.354.354,0,0,1,.354.354V292.9a4.216,4.216,0,0,1,3.892-2.224c2.628,0,4.5,1.819,4.5,5.08v7.227a.379.379,0,0,1-.379.379h-2a.354.354,0,0,1-.354-.354v-6.747c0-1.946-.96-3.058-2.7-3.058a2.8,2.8,0,0,0-2.957,3.058v6.747a.354.354,0,0,1-.354.354h-2.022A.354.354,0,0,1,923.023,303.008Z"
          transform="translate(-897.01 -285.167)"/>
    <path id="Path_86"
          d="M954.331,303.008V287.643a2.35,2.35,0,0,1,2.351-2.35h0a.379.379,0,0,1,.379.379v17.311a.379.379,0,0,1-.379.379h-2A.354.354,0,0,1,954.331,303.008Z"
          transform="translate(-913.584 -285.167)"/>
    <path id="Path_87"
          d="M966.521,303.176a6.146,6.146,0,0,1,6.293-6.444,5.683,5.683,0,0,1,5.863,5.888c0,1.087-.228,1.617-1.163,1.617h-8.339c.329,1.971,1.794,3.285,4.246,3.285a5.434,5.434,0,0,0,3.184-.961.267.267,0,0,1,.4.076l.708.96c.152.2.1.354-.1.556a6.235,6.235,0,0,1-4.423,1.567A6.35,6.35,0,0,1,966.521,303.176Zm9.73-.91a3.254,3.254,0,0,0-3.437-3.235,3.513,3.513,0,0,0-3.665,3.235Z"
          transform="translate(-920.038 -291.223)"/>
    <path id="Path_88"
          d="M998.54,303.031v-7.178h-1.592a.353.353,0,0,1-.354-.354v-1.44a.379.379,0,0,1,.379-.379h1.567V292.8a2.4,2.4,0,0,1,2.4-2.4h0a.353.353,0,0,1,.354.354v2.931h2a.379.379,0,0,1,.379.379v1.416a.379.379,0,0,1-.379.379h-2V302.7c0,.834.4,1.187,1.112,1.187.2,0,.505,0,.784-.025.3-.051.455.076.455.328v1.365c0,.505-1.112.657-1.87.657C999.93,306.215,998.54,305.33,998.54,303.031Z"
          transform="translate(-935.959 -287.868)"/>
    <path id="Path_89"
          d="M1017.322,286.592a1.579,1.579,0,1,1,3.152.153,1.6,1.6,0,0,1-1.829,1.417A1.566,1.566,0,0,1,1017.322,286.592Zm.2,6.621a2.376,2.376,0,0,1,2.375-2.376h0a.379.379,0,0,1,.379.379v11.625a.379.379,0,0,1-.379.379h-2.022a.354.354,0,0,1-.354-.354Z"
          transform="translate(-946.932 -285.025)"/>
    <path id="Path_90"
          d="M1029.995,297.171c0-3.665,2.426-6.495,5.964-6.495a4.811,4.811,0,0,1,4.246,2.148v-5.155a2.375,2.375,0,0,1,2.375-2.376h0a.354.354,0,0,1,.354.354v17.336a.379.379,0,0,1-.379.379h-1.819a.339.339,0,0,1-.354-.379l-.051-1.642a4.854,4.854,0,0,1-4.372,2.325C1032.421,303.665,1029.995,300.86,1029.995,297.171Zm6.5,3.993a4,4,0,0,0,0-7.986,4,4,0,0,0,0,7.986Z"
          transform="translate(-953.642 -285.167)"/>
</svg>
