<svg width="500" height="166" viewBox="0 0 500 166" fill="none" xmlns="http://www.w3.org/2000/svg">
<path d="M181.394 113.159L202.861 52.6273C203.13 51.9028 203.765 51.5439 204.483 51.5439H212.695C213.419 51.5439 214.137 51.9028 214.406 52.6273L235.874 113.159C236.232 114.063 235.784 114.691 234.79 114.691H226.944C226.22 114.691 225.681 114.422 225.412 113.608L221.714 102.601H195.554L191.765 113.608C191.496 114.422 191.041 114.691 190.233 114.691H182.477C181.483 114.691 181.035 114.056 181.394 113.159ZM218.65 93.5822L208.637 64.0823L198.624 93.5822H218.65Z" fill="#141414"/>
<path d="M245.527 103.864V78.2421H239.841C239.144 78.2421 238.578 77.6762 238.578 76.9793V71.8384C238.578 71.0931 239.185 70.4858 239.931 70.4858H245.527V67.3254C245.527 62.5916 249.364 58.7549 254.097 58.7549C254.794 58.7549 255.36 59.3207 255.36 60.0177V70.479H262.489C263.234 70.479 263.841 71.0862 263.841 71.8315V76.8827C263.841 77.628 263.234 78.2352 262.489 78.2352H255.36V102.684C255.36 105.658 256.803 106.921 259.328 106.921C260.053 106.921 261.129 106.921 262.123 106.831C263.206 106.652 263.744 107.1 263.744 108.004V112.876C263.744 114.677 259.777 115.222 257.072 115.222C250.488 115.222 245.527 112.062 245.527 103.857V103.864Z" fill="#141414"/>
<path d="M274.124 113.43V58.6741C274.124 53.9887 277.919 50.1934 282.604 50.1934C283.301 50.1934 283.867 50.7592 283.867 51.4562V77.3471C286.393 72.8341 290.816 69.4114 297.758 69.4114C307.143 69.4114 313.816 75.9049 313.816 87.5461V113.347C313.816 114.093 313.208 114.7 312.463 114.7H305.335C304.638 114.7 304.072 114.134 304.072 113.437V89.3541C304.072 82.4052 300.642 78.4374 294.418 78.4374C288.194 78.4374 283.867 82.4052 283.867 89.3541V113.437C283.867 114.134 283.301 114.7 282.604 114.7H275.386C274.689 114.7 274.124 114.134 274.124 113.437V113.43Z" fill="#141414"/>
<path d="M326.713 113.43V58.5844C326.713 53.9542 330.467 50.1934 335.104 50.1934C335.849 50.1934 336.456 50.8006 336.456 51.5459V113.34C336.456 114.086 335.849 114.693 335.104 114.693H327.976C327.279 114.693 326.713 114.127 326.713 113.43Z" fill="#141414"/>
<path d="M347.192 92.4108C347.192 79.4239 356.211 69.4043 369.654 69.4043C383.096 69.4043 390.583 79.417 390.583 90.4234C390.583 94.3015 389.769 96.1992 386.436 96.1992H356.667C357.84 103.238 363.071 107.923 371.821 107.923C376.147 107.923 379.666 106.84 383.186 104.494C383.724 104.135 384.269 104.225 384.628 104.763L387.154 108.192C387.692 108.917 387.512 109.455 386.795 110.18C382.917 113.968 377.231 115.769 371.006 115.769C356.57 115.769 347.192 105.577 347.192 92.4039V92.4108ZM381.923 89.1606C381.385 81.9426 376.603 77.616 369.654 77.616C362.705 77.616 357.564 81.8529 356.57 89.1606H381.916H381.923Z" fill="#141414"/>
<path d="M404.654 103.864V78.2421H398.968C398.271 78.2421 397.705 77.6762 397.705 76.9793V71.8384C397.705 71.0931 398.312 70.4858 399.058 70.4858H404.654V67.3254C404.654 62.5916 408.491 58.7549 413.224 58.7549C413.921 58.7549 414.487 59.3207 414.487 60.0177V70.479H421.615C422.361 70.479 422.968 71.0862 422.968 71.8315V76.8827C422.968 77.628 422.361 78.2352 421.615 78.2352H414.487V102.684C414.487 105.658 415.929 106.921 418.455 106.921C419.18 106.921 420.256 106.921 421.25 106.831C422.333 106.652 422.871 107.1 422.871 108.004V112.876C422.871 114.677 418.904 115.222 416.199 115.222C409.615 115.222 404.654 112.062 404.654 103.857V103.864Z" fill="#141414"/>
<path d="M432.526 55.3336C432.526 52.2698 434.962 49.7441 438.212 49.7441C441.463 49.7441 444.092 52.5734 443.781 55.8857C443.478 59.1082 440.455 61.4613 437.253 60.9438C434.5 60.5021 432.526 58.1766 432.526 55.3336ZM433.251 78.9681C433.251 74.2826 437.046 70.4872 441.732 70.4872C442.477 70.4872 443.084 71.0945 443.084 71.8398V113.333C443.084 114.078 442.477 114.685 441.732 114.685H434.514C433.817 114.685 433.251 114.12 433.251 113.423V78.9612V78.9681Z" fill="#141414"/>
<path d="M453.815 92.5886C453.815 79.5051 462.475 69.4027 475.103 69.4027C482.052 69.4027 487.103 72.2871 490.257 77.0692V58.6654C490.257 53.9799 494.052 50.1846 498.738 50.1846C499.435 50.1846 500 50.7504 500 51.4474V113.332C500 114.077 499.393 114.684 498.648 114.684H492.155C491.34 114.684 490.892 114.146 490.892 113.332L490.712 107.466C487.552 112.607 482.321 115.768 475.103 115.768C462.475 115.768 453.815 105.755 453.815 92.5817V92.5886ZM477.001 106.838C484.847 106.838 490.354 101.152 490.354 92.6783C490.354 84.2044 484.854 78.332 477.001 78.332C469.148 78.332 463.289 84.1078 463.289 92.5817C463.289 101.056 469.065 106.831 477.001 106.831V106.838Z" fill="#141414"/>
<path d="M62.9528 36.5299L116.77 150.783C117.15 151.59 117.854 152.204 118.709 152.473L160.554 165.508C163.246 166.343 165.62 163.549 164.364 161.03L84.6896 1.76482C83.5096 -0.588274 80.1559 -0.588274 78.9759 1.76482L62.9804 33.7421C62.5388 34.6184 62.5319 35.6466 62.9459 36.5299H62.9528Z" fill="#141414"/>
<path d="M101.382 35.2882L46.9086 151.439C46.5291 152.253 45.8252 152.867 44.9696 153.136L5.58111 165.461C1.97211 166.592 -1.22973 162.818 0.467807 159.416L78.9894 1.77908C80.1694 -0.587818 83.53 -0.587818 84.7031 1.77908L101.389 35.2951L101.382 35.2882Z" fill="#1E1E1E"/>
</svg>
