<svg xmlns="http://www.w3.org/2000/svg" xmlns:xlink="http://www.w3.org/1999/xlink" width="175" height="52" viewBox="0 0 170.844 52">
  <defs>
    <clipPath id="clip-path">
      <rect id="Rectangle_302" width="175" height="52"/>
    </clipPath>
  </defs>
  <g id="Group_348" clip-path="url(#clip-path)">
    <path id="Path_170" d="M162.013,52H8.829A8.829,8.829,0,0,1,0,43.171V8.829A8.829,8.829,0,0,1,8.829,0H162.013a8.829,8.829,0,0,1,8.829,8.829V43.171A8.829,8.829,0,0,1,162.013,52M8.829,1.064A7.766,7.766,0,0,0,1.064,8.829V43.171a7.766,7.766,0,0,0,7.765,7.765H162.013a7.766,7.766,0,0,0,7.765-7.765V8.829a7.766,7.766,0,0,0-7.765-7.765Z" transform="translate(0 -0.001)"/>
    <path id="Path_171" d="M60.458,16.983A5.416,5.416,0,1,0,65.894,22.4a5.339,5.339,0,0,0-5.435-5.417m0,8.7A3.134,3.134,0,0,1,57.4,22.4a3.065,3.065,0,1,1,6.115,0,3.132,3.132,0,0,1-3.057,3.281M48.6,16.983A5.416,5.416,0,1,0,54.035,22.4,5.337,5.337,0,0,0,48.6,16.983m0,8.7A3.134,3.134,0,0,1,45.54,22.4a3.064,3.064,0,1,1,6.113,0A3.132,3.132,0,0,1,48.6,25.681M34.49,18.645v2.3h5.5a4.8,4.8,0,0,1-1.252,2.891,5.622,5.622,0,0,1-4.247,1.682,6.113,6.113,0,0,1,0-12.225,5.858,5.858,0,0,1,4.145,1.64l1.621-1.619a8.022,8.022,0,0,0-5.766-2.32,8.529,8.529,0,0,0-8.533,8.41,8.529,8.529,0,0,0,8.533,8.412,7.683,7.683,0,0,0,5.866-2.36,7.585,7.585,0,0,0,1.991-5.374,7.527,7.527,0,0,0-.123-1.435Zm57.7,1.785a5.038,5.038,0,0,0-4.637-3.447A5.147,5.147,0,0,0,82.441,22.4a5.3,5.3,0,0,0,5.374,5.415,5.387,5.387,0,0,0,4.515-2.4l-1.846-1.231a3.1,3.1,0,0,1-2.669,1.5,2.76,2.76,0,0,1-2.626-1.642l7.242-3Zm-7.387,1.8a2.972,2.972,0,0,1,2.832-3.159,2.1,2.1,0,0,1,2.011,1.148Zm-5.887,5.252h2.381V11.566H78.913Zm-3.9-9.292h-.082a3.754,3.754,0,0,0-2.852-1.211,5.421,5.421,0,0,0,0,10.832,3.694,3.694,0,0,0,2.852-1.231h.082v.78c0,2.072-1.107,3.179-2.893,3.179a3,3,0,0,1-2.728-1.928l-2.072.862a5.161,5.161,0,0,0,4.8,3.2c2.791,0,5.15-1.642,5.15-5.642V17.31H75.015Zm-2.728,7.487a3.107,3.107,0,0,1-3.016-3.261,3.132,3.132,0,0,1,3.016-3.3,3.051,3.051,0,0,1,2.891,3.3,3.025,3.025,0,0,1-2.891,3.261m31.046-14.113H97.641V27.486h2.375V21.454h3.318a5.045,5.045,0,0,0,5.223-4.943,5.043,5.043,0,0,0-5.223-4.943m.061,7.671h-3.379V13.781h3.379a2.73,2.73,0,1,1,0,5.458m14.685-2.285a4.463,4.463,0,0,0-4.241,2.436l2.111.88A2.248,2.248,0,0,1,118.12,19.1a2.285,2.285,0,0,1,2.5,2.046v.165a5.234,5.234,0,0,0-2.477-.615c-2.273,0-4.588,1.25-4.588,3.583a3.677,3.677,0,0,0,3.953,3.5,3.354,3.354,0,0,0,3.032-1.556h.08V27.46h2.3v-6.1c0-2.826-2.109-4.4-4.833-4.4m-.286,8.723c-.78,0-1.864-.388-1.864-1.352,0-1.229,1.35-1.7,2.518-1.7a4.238,4.238,0,0,1,2.171.533,2.878,2.878,0,0,1-2.824,2.518M131.268,17.3l-2.724,6.9h-.082l-2.826-6.9h-2.56l4.239,9.646L124.9,32.313h2.477L133.91,17.3Zm-21.4,10.185h2.377V11.568h-2.377Z" transform="translate(27.044 11.451)"/>
    <path id="Path_172" d="M9.793,28.066a3.011,3.011,0,0,0,1.521-.412l.027-.016,14.528-8.384L19.91,13.3l-12.9,12.9a3,3,0,0,0,2.779,1.872" transform="translate(7.308 13.851)"/>
    <path id="Path_173" d="M20,22.2l6.111-3.526a3,3,0,0,0,.035-5.284l-.071-.043-6.1-3.539L13.79,15.988Z" transform="translate(14.367 10.217)"/>
    <path id="Path_174" d="M19.081,19.045,6.906,6.872V31.221Z" transform="translate(7.195 7.159)"/>
    <path id="Path_175" d="M9.793,5.141A3,3,0,0,0,7.012,7.013l12.9,12.9,5.936-5.934-14.5-8.4a3.021,3.021,0,0,0-1.558-.431" transform="translate(7.306 5.356)"/>
    <path id="Path_176" d="M26.42,4.666h2.536a4.4,4.4,0,0,1,2.144.5,3.431,3.431,0,0,1,1.407,1.4A4.242,4.242,0,0,1,33,8.633a4.242,4.242,0,0,1-.494,2.066A3.443,3.443,0,0,1,31.1,12.1a4.4,4.4,0,0,1-2.144.5H26.42Zm2.5,6.781a2.839,2.839,0,0,0,2.1-.747,2.8,2.8,0,0,0,.747-2.066,2.792,2.792,0,0,0-.747-2.066,2.839,2.839,0,0,0-2.1-.747H27.639v5.627Z" transform="translate(27.526 4.861)"/>
    <rect id="Rectangle_300" width="1.219" height="7.933" transform="translate(62.109 9.527)"/>
    <path id="Path_177" d="M32.822,12.29a2.986,2.986,0,0,1-1.1-1.617l1.152-.466a2.236,2.236,0,0,0,.631,1.086,1.566,1.566,0,0,0,1.1.421,1.65,1.65,0,0,0,1.013-.31,1.006,1.006,0,0,0,.417-.853,1.056,1.056,0,0,0-.368-.825,3.821,3.821,0,0,0-1.262-.637l-.5-.178a3.735,3.735,0,0,1-1.348-.8,1.811,1.811,0,0,1-.537-1.368,1.994,1.994,0,0,1,.316-1.086,2.187,2.187,0,0,1,.886-.786,2.823,2.823,0,0,1,1.29-.288A2.509,2.509,0,0,1,37.01,6.22l-1.1.466A1.328,1.328,0,0,0,35.448,6a1.413,1.413,0,0,0-.919-.288A1.471,1.471,0,0,0,33.609,6a.884.884,0,0,0-.376.731.842.842,0,0,0,.337.682,3.526,3.526,0,0,0,1.047.515l.51.178a4.039,4.039,0,0,1,1.572.919,2.061,2.061,0,0,1,.553,1.507,2.122,2.122,0,0,1-.392,1.3,2.363,2.363,0,0,1-1.009.78,3.266,3.266,0,0,1-1.258.255,2.927,2.927,0,0,1-1.772-.576" transform="translate(33.054 4.771)"/>
    <path id="Path_178" d="M35.215,4.667h2.726a2.767,2.767,0,0,1,1.3.31,2.4,2.4,0,0,1,.941.864,2.418,2.418,0,0,1,0,2.5,2.4,2.4,0,0,1-.941.864,2.743,2.743,0,0,1-1.3.31H36.434V12.6H35.215Zm2.759,3.7a1.3,1.3,0,0,0,.98-.382,1.257,1.257,0,0,0,0-1.785,1.3,1.3,0,0,0-.98-.382h-1.54V8.367Z" transform="translate(36.689 4.862)"/>
    <path id="Path_179" d="M40.339,12.313a4.011,4.011,0,0,1-1.478-1.5,4.145,4.145,0,0,1-.537-2.089,4.156,4.156,0,0,1,.537-2.089,4.1,4.1,0,0,1,7.134,0,4.331,4.331,0,0,1,0,4.178,4.154,4.154,0,0,1-5.656,1.5m3.551-.98a2.774,2.774,0,0,0,1.041-1.064,3.1,3.1,0,0,0,.382-1.546,3.1,3.1,0,0,0-.382-1.546A2.788,2.788,0,0,0,43.89,6.113a2.97,2.97,0,0,0-2.914,0,2.788,2.788,0,0,0-1.041,1.064,3.1,3.1,0,0,0-.382,1.546,3.1,3.1,0,0,0,.382,1.546,2.774,2.774,0,0,0,1.041,1.064,2.97,2.97,0,0,0,2.914,0" transform="translate(39.928 4.771)"/>
    <path id="Path_180" d="M43.114,4.667h1.44l3.59,5.827h.067l-.067-1.529v-4.3h1.209V12.6H48.088L44.321,6.472h-.065L44.321,8v4.6H43.114Z" transform="translate(44.919 4.861)"/>
    <rect id="Rectangle_301" width="1.219" height="7.933" transform="translate(96.276 9.527)"/>
    <path id="Path_181" d="M48.725,4.667h2.969a2.555,2.555,0,0,1,1.174.276,2.213,2.213,0,0,1,.858.76,1.9,1.9,0,0,1,.316,1.07A1.787,1.787,0,0,1,53.748,7.8a1.918,1.918,0,0,1-.78.672v.055a2.006,2.006,0,0,1,.986.7,1.869,1.869,0,0,1,.365,1.152,2.025,2.025,0,0,1-.339,1.158,2.288,2.288,0,0,1-.909.786,2.768,2.768,0,0,1-1.246.282h-3.1ZM51.639,8a1.183,1.183,0,0,0,.886-.339,1.081,1.081,0,0,0,.333-.78,1.055,1.055,0,0,0-.327-.77,1.15,1.15,0,0,0-.849-.327H49.944V8Zm.188,3.467a1.25,1.25,0,0,0,.925-.349,1.171,1.171,0,0,0-.01-1.678,1.307,1.307,0,0,0-.96-.355H49.944v2.383Z" transform="translate(50.765 4.862)"/>
    <path id="Path_182" d="M52.251,4.667H53.47v6.781h3.412V12.6H52.251Z" transform="translate(54.438 4.861)"/>
    <path id="Path_183" d="M55.149,4.667h4.809V5.818h-3.59V8.056H59.6V9.21H56.368v2.238h3.59V12.6H55.149Z" transform="translate(57.457 4.861)"/>
    <path id="Path_184" d="M60.336,12.29a2.986,2.986,0,0,1-1.1-1.617l1.152-.466a2.236,2.236,0,0,0,.631,1.086,1.566,1.566,0,0,0,1.1.421,1.65,1.65,0,0,0,1.013-.31,1.006,1.006,0,0,0,.417-.853,1.056,1.056,0,0,0-.368-.825,3.821,3.821,0,0,0-1.262-.637l-.5-.178a3.735,3.735,0,0,1-1.348-.8,1.811,1.811,0,0,1-.537-1.368,1.994,1.994,0,0,1,.316-1.086,2.187,2.187,0,0,1,.886-.786,2.823,2.823,0,0,1,1.29-.288,2.509,2.509,0,0,1,2.493,1.64l-1.1.466A1.328,1.328,0,0,0,62.962,6a1.413,1.413,0,0,0-.919-.288A1.471,1.471,0,0,0,61.123,6a.884.884,0,0,0-.376.731.842.842,0,0,0,.337.682,3.526,3.526,0,0,0,1.047.515l.51.178a4.039,4.039,0,0,1,1.572.919,2.061,2.061,0,0,1,.553,1.507,2.122,2.122,0,0,1-.392,1.3,2.363,2.363,0,0,1-1.009.78,3.266,3.266,0,0,1-1.258.255,2.927,2.927,0,0,1-1.772-.576" transform="translate(61.72 4.771)"/>
    <path id="Path_185" d="M64.065,12.377a2.691,2.691,0,0,1-1.052-1.129,3.682,3.682,0,0,1-.372-1.7V4.667h1.207V9.619a2.182,2.182,0,0,0,.466,1.452,1.861,1.861,0,0,0,2.648,0,2.182,2.182,0,0,0,.466-1.452V4.667h1.207V9.551a3.726,3.726,0,0,1-.366,1.685,2.683,2.683,0,0,1-1.041,1.135,3.317,3.317,0,0,1-3.163.006" transform="translate(65.264 4.862)"/>
    <path id="Path_186" d="M66.5,4.667h2.781a2.734,2.734,0,0,1,1.3.31,2.347,2.347,0,0,1,1.258,2.115,2.129,2.129,0,0,1-.517,1.413,2.5,2.5,0,0,1-1.29.825l-.01.055,2.183,3.147V12.6H70.8L68.687,9.486h-.964V12.6H66.5Zm2.748,3.7A1.377,1.377,0,0,0,70.222,8a1.2,1.2,0,0,0,.392-.919A1.267,1.267,0,0,0,69.3,5.808H67.723V8.367Z" transform="translate(69.288 4.862)"/>
  </g>
</svg>
