<svg width="121" height="40" viewBox="0 0 121 40" fill="none" xmlns="http://www.w3.org/2000/svg">
<path d="M43.7976 27.3223L48.9809 12.7069C49.0459 12.532 49.1992 12.4453 49.3725 12.4453H51.3552C51.5301 12.4453 51.7034 12.532 51.7684 12.7069L56.9518 27.3223C57.0384 27.5406 56.9301 27.6922 56.6902 27.6922H54.7958C54.6208 27.6922 54.4909 27.6272 54.4259 27.4306L53.5329 24.7731H47.2165L46.3018 27.4306C46.2368 27.6272 46.1268 27.6922 45.9319 27.6922H44.0592C43.8192 27.6922 43.7109 27.5389 43.7976 27.3223ZM52.7931 22.5955L50.3755 15.4727L47.9579 22.5955H52.7931Z" fill="white"/>
<path d="M59.2827 25.0786V18.8922H57.9098C57.7415 18.8922 57.6049 18.7556 57.6049 18.5873V17.346C57.6049 17.1661 57.7515 17.0195 57.9314 17.0195H59.2827V16.2564C59.2827 15.1134 60.2091 14.187 61.352 14.187C61.5203 14.187 61.657 14.3236 61.657 14.4919V17.0178H63.3781C63.558 17.0178 63.7046 17.1644 63.7046 17.3444V18.564C63.7046 18.7439 63.558 18.8905 63.3781 18.8905H61.657V24.7937C61.657 25.5118 62.0052 25.8167 62.615 25.8167C62.7899 25.8167 63.0498 25.8167 63.2898 25.795C63.5514 25.7517 63.6813 25.86 63.6813 26.0783V27.2546C63.6813 27.6894 62.7233 27.8211 62.0702 27.8211C60.4807 27.8211 59.2827 27.058 59.2827 25.0769V25.0786Z" fill="white"/>
<path d="M66.1872 27.3877V14.1668C66.1872 13.0355 67.1036 12.1191 68.2349 12.1191C68.4032 12.1191 68.5398 12.2558 68.5398 12.424V18.6754C69.1496 17.5858 70.2176 16.7593 71.8938 16.7593C74.1597 16.7593 75.7709 18.3272 75.7709 21.138V27.3677C75.7709 27.5476 75.6243 27.6942 75.4443 27.6942H73.7232C73.5549 27.6942 73.4183 27.5576 73.4183 27.3893V21.5745C73.4183 19.8967 72.5902 18.9387 71.0873 18.9387C69.5845 18.9387 68.5398 19.8967 68.5398 21.5745V27.3893C68.5398 27.5576 68.4032 27.6942 68.2349 27.6942H66.4921C66.3238 27.6942 66.1872 27.5576 66.1872 27.3893V27.3877Z" fill="white"/>
<path d="M78.8849 27.3877V14.1452C78.8849 13.0272 79.7913 12.1191 80.9109 12.1191C81.0908 12.1191 81.2375 12.2658 81.2375 12.4457V27.366C81.2375 27.546 81.0908 27.6926 80.9109 27.6926H79.1898C79.0215 27.6926 78.8849 27.556 78.8849 27.3877Z" fill="white"/>
<path d="M83.83 22.3127C83.83 19.1771 86.0077 16.7578 89.2533 16.7578C92.499 16.7578 94.3067 19.1754 94.3067 21.8329C94.3067 22.7693 94.1101 23.2274 93.3054 23.2274H86.1176C86.4009 24.9269 87.6638 26.0582 89.7765 26.0582C90.8212 26.0582 91.6709 25.7966 92.5206 25.2302C92.6506 25.1435 92.7822 25.1652 92.8688 25.2951L93.4786 26.1232C93.6086 26.2982 93.5653 26.4281 93.392 26.6031C92.4556 27.5178 91.0827 27.9526 89.5799 27.9526C86.0943 27.9526 83.83 25.4917 83.83 22.3111V22.3127ZM92.2157 21.528C92.0858 19.7852 90.9311 18.7405 89.2533 18.7405C87.5755 18.7405 86.3342 19.7635 86.0943 21.528H92.214H92.2157Z" fill="white"/>
<path d="M97.704 25.0786V18.8922H96.3311C96.1628 18.8922 96.0262 18.7556 96.0262 18.5873V17.346C96.0262 17.1661 96.1728 17.0195 96.3527 17.0195H97.704V16.2564C97.704 15.1134 98.6304 14.187 99.7733 14.187C99.9416 14.187 100.078 14.3236 100.078 14.4919V17.0178H101.799C101.979 17.0178 102.126 17.1644 102.126 17.3444V18.564C102.126 18.7439 101.979 18.8905 101.799 18.8905H100.078V24.7937C100.078 25.5118 100.426 25.8167 101.036 25.8167C101.211 25.8167 101.471 25.8167 101.711 25.795C101.973 25.7517 102.103 25.86 102.103 26.0783V27.2546C102.103 27.6894 101.145 27.8211 100.491 27.8211C98.9019 27.8211 97.704 27.058 97.704 25.0769V25.0786Z" fill="white"/>
<path d="M104.434 13.3603C104.434 12.6206 105.022 12.0107 105.806 12.0107C106.591 12.0107 107.226 12.6939 107.151 13.4936C107.078 14.2717 106.348 14.8399 105.575 14.7149C104.91 14.6083 104.434 14.0468 104.434 13.3603ZM104.608 19.0669C104.608 17.9356 105.525 17.0192 106.656 17.0192C106.836 17.0192 106.983 17.1658 106.983 17.3457V27.3643C106.983 27.5442 106.836 27.6908 106.656 27.6908H104.913C104.745 27.6908 104.608 27.5542 104.608 27.3859V19.0652V19.0669Z" fill="white"/>
<path d="M109.574 22.3556C109.574 19.1966 111.665 16.7574 114.714 16.7574C116.391 16.7574 117.611 17.4538 118.372 18.6085V14.1649C118.372 13.0336 119.289 12.1172 120.42 12.1172C120.588 12.1172 120.725 12.2538 120.725 12.4221V27.3641C120.725 27.544 120.578 27.6906 120.399 27.6906H118.831C118.634 27.6906 118.526 27.5607 118.526 27.3641L118.482 25.9478C117.719 27.1891 116.456 27.9522 114.714 27.9522C111.665 27.9522 109.574 25.5346 109.574 22.354V22.3556ZM115.172 25.7962C117.066 25.7962 118.396 24.4233 118.396 22.3773C118.396 20.3313 117.068 18.9134 115.172 18.9134C113.276 18.9134 111.861 20.308 111.861 22.354C111.861 24.4 113.256 25.7946 115.172 25.7946V25.7962Z" fill="white"/>
<path d="M15.1999 8.82015L28.1941 36.4065C28.2858 36.6014 28.4557 36.7497 28.6623 36.8147L38.7658 39.962C39.4156 40.1636 39.9888 39.4889 39.6855 38.8807L20.4482 0.426116C20.1633 -0.142039 19.3536 -0.142039 19.0687 0.426116L15.2065 8.14703C15.0999 8.35863 15.0982 8.60688 15.1982 8.82015H15.1999Z" fill="#E2E2E2"/>
<path d="M24.4786 8.52087L11.3261 36.5654C11.2345 36.762 11.0645 36.9103 10.8579 36.9753L1.34756 39.951C0.476167 40.2243 -0.296919 39.3129 0.112952 38.4915L19.072 0.43008C19.3569 -0.141407 20.1683 -0.141407 20.4516 0.43008L24.4803 8.52254L24.4786 8.52087Z" fill="white"/>
</svg>
